<svg xmlns="http://www.w3.org/2000/svg" version="1.1" xmlns:xlink="http://www.w3.org/1999/xlink" xmlns:svgjs="http://svgjs.dev/svgjs" viewBox="0 0 9.985747411057897 9.139330209513739"><g transform="matrix(1,0,0,1,4.986127375279438,6.922996118360148)"><g><path d=" M -2.71785492951267 1.1088086237998538 Q -2.8000304705627577 1.03418838222208 -2.8319318843237613 0.9451108889925932 Q -2.863833298084765 0.8560333957631066 -2.843367352328297 0.7665563313035855 Q -2.822901406571829 0.6770792668440643 -2.753659200423084 0.6008262873110999 Q -2.6850892487029676 0.5253136279677758 -2.5976243257840403 0.49667558929914224 Q -2.5101594028651135 0.4680375506305087 -2.4177550905275362 0.49048622679235654 Q -2.3253507781899594 0.5129349029542044 -2.243915557329512 0.5868828901033496 L -2.0373662244198316 0.774441875690727 L -2.5113055966029894 1.2963676093872312 L -2.71785492951267 1.1088086237998538 Z M -2.349110770637652 0.7250420993405732 Q -2.4127783069467292 0.6672282184785142 -2.480649954384654 0.6690828003888134 Q -2.5485216018225794 0.6709373822991127 -2.606335482684638 0.7346049186081898 Q -2.664821617975326 0.7990127751069073 -2.660478014042803 0.8671184511176289 Q -2.6561344101102797 0.9352241271283503 -2.5924668738012024 0.9930380079904093 L -2.542125100905653 1.0387513091371536 L -2.2987689977421026 0.7707554004873174 L -2.349110770637652 0.7250420993405732 Z M -3.243015999439015 0.5429337371374718 L -2.6930600807756835 0.10182888845955101 L -2.5704266760368575 0.25472443464112965 L -3.120382594700189 0.6958292833190505 Z M -3.096699115484163 -0.3210866556942887 L -2.9734573154541994 -0.10357468194255626 L -2.854669053923848 -0.12720408994607635 L -2.7531178106991576 0.05202577642535121 L -3.493194147109846 0.17596534349306872 L -3.6046047343369336 -0.020665480778497447 L -3.117420571587731 -0.59093961798477 L -3.0153763611629207 -0.4108397037183355 Z M -3.20305090692933 -0.20450922882097072 L -3.363956319781801 -0.025989067173116887 L -3.1286128597112315 -0.07313199667492432 Z M -4.046038148770273 -1.2733361465668338 L -3.365108916806307 -1.4559843906234469 L -3.314330114203334 -1.2666764055667983 L -3.690048513116784 -1.1658960269313055 L -3.2798730695798874 -1.1382174157069298 L -3.23738468372842 -0.9798168567819789 L -3.5812845336947863 -0.7488344046495481 L -3.2026685635814895 -0.8503920098554947 L -3.151889760978516 -0.6610840247988461 L -3.8328189929424816 -0.47843578074223303 L -3.894219892008322 -0.7073439055301193 L -3.4977137231551647 -0.9969571960769997 L -3.984896325227917 -1.0453938788455632 Z M -3.3666633736257867 -1.9199761710787846 Q -3.36627822474908 -1.8209769202718074 -3.412454970261785 -1.7377966451228584 Q -3.45863171577449 -1.6546163699739092 -3.5409424074013116 -1.6057957796055589 Q -3.6232530990281333 -1.5569751892372086 -3.7272523119970793 -1.556570588397032 Q -3.831251524966025 -1.5561659875568554 -3.913939584684165 -1.6043446631306948 Q -3.9966276444023054 -1.6525233387045342 -4.042950198886018 -1.7353437525292879 Q -4.089272753369731 -1.8181641663540413 -4.089657902246438 -1.9171634171610186 Q -4.090046941515839 -2.0171626604003894 -4.044368247022984 -2.0998409941367946 Q -3.9986895525301285 -2.1825193278732 -3.9163769157069597 -2.2308399220253534 Q -3.834064278883791 -2.279160516177507 -3.7300650659148453 -2.2795651170176834 Q -3.6260658529458993 -2.27996971785786 -3.543379738424106 -2.2322910385002173 Q -3.460693623902313 -2.184612359142575 -3.413871073202403 -2.1017938905141684 Q -3.3670485225024933 -2.0189754218857616 -3.3666633736257867 -1.9199761710787846 Z M -3.5486619963214414 -1.9192681196084755 Q -3.548953775773492 -1.9942675520380038 -3.598122637042973 -2.0375765936051238 Q -3.647291498312454 -2.080885635172244 -3.7292908777687384 -2.0805666229713355 Q -3.81329024208981 -2.080239829985039 -3.8616206429787154 -2.0365514751302536 Q -3.909951043867621 -1.9928631202754676 -3.9096592644155708 -1.9178636878459396 Q -3.9093635945708263 -1.8418642629840178 -3.860696674713889 -1.7990532724367474 Q -3.812029754856952 -1.7562422818894772 -3.7280303905358805 -1.7565690748757736 Q -3.6450310186472024 -1.756891977469376 -3.59669867256195 -1.800080336107965 Q -3.5483663264766974 -1.8432686947465537 -3.5486619963214414 -1.9192681196084755 Z M -3.21139971403406 -3.0166760571920603 L -3.2559094610666093 -2.825796822022023 L -3.6988863112323753 -2.6610894748355163 L -3.315180093594647 -2.5716157996782485 L -3.3596898406271967 -2.380736564508211 L -4.046270763050035 -2.5408353994977384 L -4.001761016017486 -2.731714634667776 L -3.553914797607586 -2.8952865291238603 L -3.942490383489448 -2.9858956570115502 L -3.8979806364568987 -3.1767748921815877 Z M -3.679132282807607 -3.6934625410126714 Q -3.6304155927935455 -3.7932006185662006 -3.553783267862859 -3.848698247125605 Q -3.4771509429321723 -3.90419587568501 -3.385517634329333 -3.909519103511892 Q -3.2938843257264945 -3.9148423313387735 -3.2013345780867333 -3.869636754118518 Q -3.109683371686193 -3.824870065997488 -3.057769526563287 -3.7488753116748708 Q -3.0058556814403814 -3.6728805573522534 -3.0016192948411793 -3.577882909862528 Q -2.9973829082419776 -3.482885262372803 -3.0456607091568135 -3.3840457260584946 L -3.1681107678408065 -3.1333527203158402 L -3.8015823414916006 -3.4427695352700165 L -3.679132282807607 -3.6934625410126714 Z M -3.2076916800304303 -3.4464954216362402 Q -3.1699472174970134 -3.523769968209245 -3.190673089878336 -3.588426276594685 Q -3.211398962259659 -3.653082584980125 -3.2886735088326637 -3.690827047513542 Q -3.3668465966448893 -3.729010399146185 -3.4310328713699496 -3.7058291106375814 Q -3.4952191460950095 -3.682647822128978 -3.532963608628427 -3.6053732755559733 L -3.56280806737578 -3.5442724712889464 L -3.2375361387777835 -3.3853946173692133 L -3.2076916800304303 -3.4464954216362402 Z M -2.528249168538338 -4.155787993635935 Q -2.609142777653658 -4.06313150975975 -2.705167163237944 -4.042094224451031 Q -2.8011915488222296 -4.021056939142312 -2.8872477959539053 -4.088223317112336 L -2.7497944276197432 -4.245664009227154 Q -2.7199491371257203 -4.223590073571558 -2.6946471956697344 -4.22672244624381 Q -2.669345254213749 -4.229854818916063 -2.649615105649037 -4.252453961324889 Q -2.6318579719407955 -4.272793189492832 -2.6305183326953516 -4.294854589418768 Q -2.6291786934499077 -4.316915989344703 -2.6472580073769683 -4.332700108196473 Q -2.670610454532755 -4.353087928380009 -2.702489112176978 -4.342422508238148 Q -2.7343677698212008 -4.331757088096286 -2.792935824730922 -4.2966033835391295 Q -2.85564117560986 -4.259751803231777 -2.8997882714695273 -4.241876291290651 Q -2.943935367329195 -4.224000779349525 -2.995914170321018 -4.227565052001443 Q -3.047892973312842 -4.231129324653361 -3.098364391359219 -4.275193323114553 Q -3.1495891141525574 -4.319914993194566 -3.1637635593401514 -4.377424428104187 Q -3.1779380045277454 -4.434933863013808 -3.1573103260723427 -4.496573938302053 Q -3.136682647616939 -4.558214013590297 -3.086699604586335 -4.615465174359323 Q -3.0058059954710146 -4.708121658235508 -2.9141521085372206 -4.7256734390547654 Q -2.8224982216034262 -4.743225219874024 -2.7408661698253787 -4.678593895251159 L -2.8809502246348355 -4.518139984148496 Q -2.9057136481564068 -4.538432171203895 -2.9299334490560196 -4.5350187792862995 Q -2.9541532499556324 -4.531605387368703 -2.973225726901521 -4.509759549706838 Q -2.9876945025156436 -4.4931868452737 -2.9871089434686846 -4.474090847771539 Q -2.986523384421726 -4.454994850269379 -2.9684440704946655 -4.439210731417608 Q -2.9533779755554486 -4.426057299041133 -2.932261146632748 -4.428197284146083 Q -2.9111443177100473 -4.430337269251032 -2.8881081706340126 -4.440757726433482 Q -2.8650720235579774 -4.451178183615933 -2.823423924759535 -4.474554151327991 Q -2.762033917118245 -4.509899122141422 -2.716475844892793 -4.527870267210686 Q -2.670917772667341 -4.545841412279948 -2.619692274422478 -4.5429348112468535 Q -2.568466776177616 -4.540028210213759 -2.521761881866043 -4.499252569846687 Q -2.474303682807509 -4.457819257860791 -2.457355101452414 -4.4012065773903375 Q -2.4404065200973193 -4.344593896919883 -2.457692143755467 -4.280699787529824 Q -2.474977767413615 -4.216805678139765 -2.528249168538338 -4.155787993635935 Z M -2.0144415858275275 -4.630092411556047 Q -2.093755378647161 -4.570844438860231 -2.18807937394398 -4.558425344237607 Q -2.282403369240799 -4.546006249614982 -2.370632426808042 -4.583075554987434 Q -2.4588614843752854 -4.6201448603598845 -2.521101778924426 -4.7034644002916215 Q -2.583342073473567 -4.786783940223358 -2.593859637066018 -4.881904289550296 Q -2.604377200658469 -4.977024638877234 -2.565411159648145 -5.063550055073758 Q -2.5264451186378216 -5.1500754712702825 -2.4471313258181877 -5.2093234439661 Q -2.3670163835761335 -5.269169881032581 -2.2733921951758576 -5.2816903181810835 Q -2.179768006775581 -5.294210755329585 -2.091939523919548 -5.256842217771802 Q -2.0041110410635152 -5.219473680214018 -1.9418707465143743 -5.136154140282282 Q -1.8796304519652338 -5.052834600350545 -1.8687123136615726 -4.95801348320894 Q -1.8577941753579115 -4.8631923660673335 -1.8964609841829025 -4.776266375159599 Q -1.9351277930078936 -4.689340384251865 -2.0144415858275275 -4.630092411556047 Z M -2.1233621012885235 -4.7759016064365865 Q -2.0632758946069827 -4.820786434236448 -2.057750648894265 -4.886075956058973 Q -2.0522254031815477 -4.9513654778815 -2.101299481576062 -5.017059730519984 Q -2.1515704887119065 -5.084356282003309 -2.2154460105644436 -5.097178828866786 Q -2.2793215324169807 -5.110001375730263 -2.3394077390985215 -5.065116547930402 Q -2.4002950952024826 -5.019633255759876 -2.4057189983893226 -4.955043540833893 Q -2.411142901576162 -4.89045382590791 -2.3608718944403178 -4.8231572744245845 Q -2.311199351675138 -4.756661872363679 -2.2477244045338116 -4.74354009331487 Q -2.1842494573924847 -4.7304183142660605 -2.1233621012885235 -4.7759016064365865 Z M -1.5035024076008985 -5.732498860773264 L -1.4372199863428397 -5.591280446137746 L -1.6924994281839691 -5.471462223094331 L -1.6398134010301275 -5.359211688384048 L -1.4515221815161028 -5.447588250061459 L -1.3882139714683417 -5.312706559159586 L -1.5765051909823664 -5.224329997482174 L -1.4592362918334931 -4.974482033127026 L -1.6366645563755549 -4.8912041192386955 L -1.9362101139840897 -5.529402723841519 Z M -0.7860277812271604 -5.944938823350657 L -0.745438963196166 -5.794311641703894 L -0.926964028257649 -5.745396912281926 L -0.7841226109562643 -5.215305099948127 L -0.9733721468714276 -5.164308892678416 L -1.1162135641728124 -5.694400705012216 L -1.2958075115208754 -5.646006345052183 L -1.33639632955187 -5.796633526698946 Z M 0.465027689275168 -6.016757686327023 L 0.2999793627632571 -5.309853838611071 L 0.05899465039094398 -5.307139358396831 L -0.042864986757049195 -5.738019404720722 L -0.13699291651765927 -5.3049317313346265 L -0.37797762888997244 -5.3022172511203856 L -0.5569074810339776 -6.005246488074102 L -0.34492092907161076 -6.007634329590363 L -0.25749717024259133 -5.526588503922782 L -0.1519331718605882 -6.009808166442432 L 0.06305318979935914 -6.012229798168829 L 0.17643024572722998 -5.535476567252531 L 0.2530411373128011 -6.014369844810761 Z M 1.027420695229179 -5.26886575691675 L 0.7860213434805792 -5.333876163586419 L 0.7194238549467439 -5.232714043595854 L 0.5205107891058978 -5.286282618691661 L 0.9519986695119276 -5.900198092566292 L 1.1702236834926616 -5.84142868493691 L 1.2340872728747583 -5.094111856576117 L 1.0342086096269179 -5.147940473298604 Z M 1.0191126662882553 -5.426447407673164 L 1.00501675423942 -5.666366780095467 L 0.8733074578321012 -5.4657136933016455 Z M 1.61891594424106 -4.893600885661167 L 1.6135853904026134 -5.18884923061127 L 1.5949187872866433 -5.198469933709841 L 1.4758053203519554 -4.967359609416877 L 1.301583691269567 -5.057152838336872 L 1.6245644381501632 -5.683817371515872 L 1.8992301697137244 -5.5422555973511844 Q 1.9747854680402703 -5.503314656237921 2.013714936727623 -5.450062928869501 Q 2.052644405414975 -5.396811201501082 2.0557173522674845 -5.337289718004435 Q 2.058790299119994 -5.277768234507787 2.0294700611053016 -5.220879539297212 Q 1.9964847933387726 -5.156879757185314 1.936405786579109 -5.126531562069752 Q 1.8763267798194452 -5.096183366954189 1.7982344937203563 -5.110556774755335 L 1.813581948164749 -4.793270696204641 Z M 1.6563080356299056 -5.317580639306984 L 1.7425299643084344 -5.273142153565966 Q 1.7780853988150442 -5.2548170048067835 1.8045675617289612 -5.262543261817831 Q 1.8310497246428779 -5.270269518828879 1.8475423585261423 -5.302269409884828 Q 1.8631187349714478 -5.332491529215447 1.8538300848069116 -5.359216442276501 Q 1.8445414346423759 -5.385941355337554 1.8098748859984313 -5.403808375377757 L 1.7236529573199022 -5.4482468611187755 Z M 2.3809498675481287 -5.048852124827665 L 2.310620193661868 -4.957864559902275 L 2.488639342428937 -4.820263024037851 L 2.3975165475676077 -4.702374787743214 L 2.219497398800539 -4.839976323607638 L 2.141828976334842 -4.739494404081336 L 2.343584011604187 -4.583545996768323 L 2.2475687176899 -4.459328190739746 L 1.89073922393902 -4.735142824850212 L 2.3218907029808795 -5.2929361576536955 L 2.67872019673176 -5.017121523543229 L 2.582704902817474 -4.892903717514652 Z M 2.6314583352582948 -4.032610040626477 Q 2.5543930122079455 -4.128474194423115 2.5504896990057153 -4.226698499694495 Q 2.546586385803485 -4.324922804965875 2.627779888450082 -4.397892765415208 L 2.758728282901488 -4.235001642297345 Q 2.731770740451695 -4.209481240555451 2.7304256227558725 -4.184021651823809 Q 2.7290805050600495 -4.158562063092166 2.7478769253162323 -4.135180562166157 Q 2.764793703546797 -4.114137211332749 2.786279957446274 -4.108956391574526 Q 2.8077662113457516 -4.103775571816303 2.826471412086559 -4.118812708021249 Q 2.850632296376768 -4.138235675619304 2.8457119406538633 -4.17148909799295 Q 2.8407915849309586 -4.2047425203665965 2.8164330583574357 -4.268559933218944 Q 2.7911271091448224 -4.336747974211838 2.7812555894455366 -4.383342535040615 Q 2.771384069746251 -4.429937095869392 2.7839922380915714 -4.480489386529421 Q 2.7966004064368923 -4.53104167718945 2.8488190918383127 -4.573020349094925 Q 2.901817160603933 -4.6156255683422724 2.9609198633913216 -4.619514080040291 Q 3.02002256617871 -4.6234025917383095 3.077099990796083 -4.59230327343311 Q 3.134177415413456 -4.561203955127911 3.1817950133957855 -4.5019708194486885 Q 3.258860336446135 -4.406106665652051 3.260097022632265 -4.312795516225645 Q 3.2613337088183956 -4.219484366799239 3.183410575650928 -4.1504265264234705 L 3.0499559918320305 -4.316435182998135 Q 3.0742697121445675 -4.337264081302264 3.0751487201471264 -4.3617074310099335 Q 3.076027728149685 -4.386150780717603 3.0578578552353752 -4.408752898279412 Q 3.0440738137141743 -4.425899332291819 3.0251701671933517 -4.428665583946277 Q 3.006266520672529 -4.431431835600735 2.987561319931722 -4.41639469939579 Q 2.9719736526477156 -4.403863752558334 2.9703840776658392 -4.3826983739560745 Q 2.968794502683963 -4.361532995353815 2.975021566222933 -4.3370284308875435 Q 2.981248629761903 -4.312523866421273 2.9969731263189723 -4.267426857562295 Q 3.02102598084784 -4.200797583297802 3.030744664524798 -4.1527970917629515 Q 3.0404633482017562 -4.104796600228101 3.028634563220636 -4.054870856909945 Q 3.0168057782395157 -4.004945113591789 2.9684840096590968 -3.9660991783956776 Q 2.919382857714478 -3.926626695857694 2.860677448235471 -3.9198499047363655 Q 2.801972038756464 -3.913073113615037 2.742090354353226 -3.9412765508706453 Q 2.682208669949988 -3.969479988126253 2.6314583352582948 -4.032610040626477 Z M 3.0084967912137754 -3.4437085924703625 Q 2.9640475839945823 -3.5321691372210324 2.9683317368401694 -3.6272106862109115 Q 2.972615889685757 -3.722252235200791 3.024557388592821 -3.8026299727360526 Q 3.076498887499886 -3.8830077102713143 3.169427136530892 -3.9297018269460224 Q 3.262355385561899 -3.97639594362073 3.3578481279059504 -3.970100218117457 Q 3.453340870250002 -3.9638044926141833 3.531709246590647 -3.9102937685513277 Q 3.610077622931292 -3.856783044488472 3.6545268301504845 -3.7683224997378026 Q 3.6994250192607807 -3.6789684141310652 3.6953631458976757 -3.584598126514771 Q 3.691301272534571 -3.490227838898477 3.6391352826819547 -3.4102968717912487 Q 3.586969292829339 -3.3303659046840206 3.4940410437983322 -3.283671788009313 Q 3.4011127947673256 -3.2369776713346052 3.3058445433688255 -3.242826626409845 Q 3.2105762919703253 -3.2486755814850845 3.131761145201647 -3.3019618146023886 Q 3.0529459984329685 -3.3552480477196927 3.0084967912137754 -3.4437085924703625 Z M 3.171121227018037 -3.525423296651101 Q 3.204794868850759 -3.4584077324460485 3.268109083061039 -3.441538817871163 Q 3.3314232972713187 -3.424669903296277 3.404693647468843 -3.4614864183667198 Q 3.4797510793785023 -3.4992008972193682 3.5035570986347913 -3.559845546176793 Q 3.52736311789108 -3.620490195134217 3.493689476058358 -3.6875057593392695 Q 3.459566852334533 -3.75541486440039 3.396923899497838 -3.7720614994927932 Q 3.3342809466611434 -3.7887081345851965 3.2592235147514845 -3.750993655732548 Q 3.1850596236978923 -3.7137281587710023 3.161029113496052 -3.653530280241612 Q 3.136998603294212 -3.5933324017122215 3.171121227018037 -3.525423296651101 Z M 3.39470424436807 -2.877240387783763 L 3.45380502412253 -2.6663657856325917 L 3.3093703651148783 -2.6258857994994 L 3.197375736813048 -3.025488356087236 L 3.8762186341490104 -3.2157442909132374 L 3.929112482696381 -3.0270163364765725 Z M 4.0515166846893464 -2.4148222189177484 L 3.644246305454495 -2.3772477834875194 Q 3.587487352847193 -2.372011248476461 3.5590529782325735 -2.3427753742758237 Q 3.5306186036179543 -2.313539500075186 3.5355795315231675 -2.2597678607630054 Q 3.540540459428381 -2.2059962214508246 3.574433647497401 -2.1815063908569217 Q 3.608326835566421 -2.157016560263019 3.664090017075349 -2.1621612262387964 L 4.0713603963102 -2.199735661669025 L 4.08936672722542 -2.004564526387776 L 3.682096347990569 -1.9669900909575473 Q 3.5855065514483178 -1.9580787945352192 3.5135296007631673 -1.9926123806517428 Q 3.4415526500780165 -2.0271459667682667 3.400721780196761 -2.094178347486394 Q 3.3598909103155052 -2.1612107282045216 3.3519901732812762 -2.2468470426646614 Q 3.3440894362470472 -2.3324833571248016 3.372242379259424 -2.4028673879822473 Q 3.4003953222718 -2.473251418839693 3.4645707991028662 -2.517835700526239 Q 3.5287462759339325 -2.562419982212785 3.6263318435745573 -2.571423147670395 L 4.033602222809408 -2.6089975831006234 Z M 4.025637825142363 -1.217624974106939 L 3.870513482252515 -1.2341306774543521 L 3.8904049709019617 -1.4210753983728872 L 3.3444866103473037 -1.4791627774608995 L 3.365224545322259 -1.6740625928866062 L 3.911142905876917 -1.6159752137985939 L 3.9308227829449867 -1.800931161090336 L 4.085947125834835 -1.7844254577429226 Z M 3.934055627090293 -0.8516034183403873 L 3.249960644182547 -1.0220119109704529 L 3.2973366222754446 -1.212200019693741 L 3.9814316051831904 -1.0417915270636755 Z M 3.0882890789404382 -0.5920323993118888 Q 3.1276952380162686 -0.6828517509220514 3.2033902991593646 -0.7404842740191968 Q 3.27908536030246 -0.7981167971163421 3.3740731908379775 -0.8097706398369168 Q 3.4690610213734945 -0.8214244825574913 3.5644672089235643 -0.7800281134273261 Q 3.659873396473634 -0.7386317442971609 3.716251151955055 -0.6613009697835357 Q 3.7726289074364754 -0.5839701952699106 3.781790311181663 -0.4895187861675702 Q 3.790951714926851 -0.3950673770652299 3.7515455558510205 -0.30424802545506724 Q 3.7117413547643228 -0.21251130665692308 3.6367039982206517 -0.15513844614833494 Q 3.5616666416769798 -0.09776558563974691 3.466877832146896 -0.08657042651316293 Q 3.3720890226168128 -0.07537526738657907 3.276682835066743 -0.11677163651674427 Q 3.1812766475166727 -0.15816800564690947 3.1246998710298186 -0.2350400965665439 Q 3.0681230945429645 -0.31191218748617844 3.0585030072037864 -0.4065626175939522 Q 3.048882919864608 -0.501213047701726 3.0882890789404382 -0.5920323993118888 Z M 3.2552499071530607 -0.5195887533340997 Q 3.2253967563380375 -0.4507862142354916 3.253032921076415 -0.3913766830258172 Q 3.280669085814792 -0.3319671518161429 3.3558931952292705 -0.29932770692505106 Q 3.4329520390197112 -0.2658921780122253 3.494759175109525 -0.28649261316236974 Q 3.556566311199338 -0.30709304831251427 3.586419462014361 -0.3758955874111224 Q 3.616670654840251 -0.4456154936977119 3.5892941526904307 -0.504367320307962 Q 3.561917650540611 -0.5631191469182122 3.48485880675017 -0.5965546758310379 Q 3.4087173301477103 -0.6295921627329967 3.3471092150633304 -0.609450411176843 Q 3.2855010999789505 -0.5893086596206891 3.2552499071530607 -0.5195887533340997 Z M 2.5056534448659216 0.34998307938115014 L 2.623074604310846 0.19304910818749949 L 3.094905763828314 0.220111201757691 L 2.779436454388016 -0.015929292228535258 L 2.896857613832941 -0.1728632634221859 L 3.4613395000141844 0.2494934580506301 L 3.3439183405692594 0.40642742924428077 L 2.8680837634193006 0.37636989793314735 L 3.1875564904920894 0.6154058296603155 L 3.070135331047165 0.7723398008539661 Z M 2.2114433982017503 0.605977414262252 Q 2.3038987826617734 0.5248540397987267 2.4018637646004564 0.5167230918986685 Q 2.49982874653914 0.5085921439986103 2.576228584939826 0.5865669135869138 L 2.419129598337023 0.7244106962119284 Q 2.3924716226579132 0.6985775327840401 2.3669777228967717 0.6983303992798661 Q 2.3414838231356305 0.698083265775692 2.3189337293648933 0.7178694546692348 Q 2.2986386449712297 0.7356770246734232 2.2943882086070606 0.7573665103914883 Q 2.2901377722428915 0.7790559961095533 2.3059667233577255 0.7970960711261432 Q 2.3264124518810534 0.8203978346892384 2.3594230495657733 0.8140495718955649 Q 2.3924336472504937 0.8077013091018913 2.455142515979238 0.7806162988053982 Q 2.5221771431369833 0.7523964695744817 2.5683032113525663 0.7405269358443245 Q 2.61442927956815 0.7286574021141673 2.6654777726634915 0.7390762001588007 Q 2.716526265758833 0.749494998203434 2.760715420954412 0.7998568742914139 Q 2.805564115779776 0.8509704201717518 2.8119950148841677 0.9098507525137922 Q 2.8184259139885595 0.9687310848558327 2.789814217191704 1.027095207451866 Q 2.761202520394848 1.0854593300478994 2.704075616175647 1.135584341911541 Q 2.6116202317156243 1.2167077163750664 2.5184489732646944 1.2219628661036661 Q 2.425277714813764 1.2272180158322663 2.3529272443543596 1.1523420555759674 L 2.5130329101265945 1.0118601144318138 Q 2.5348898480720647 1.035254008157482 2.559348373307242 1.0350792416841905 Q 2.5838068985424196 1.0349044752108991 2.605605322520799 1.015777825947141 Q 2.622142057952673 1.0012679540918765 2.624091419858482 0.982262691974237 Q 2.626040781764291 0.9632574298565975 2.6102118306494564 0.9452173548400077 Q 2.5970210380537613 0.9301839589928494 2.575806831640335 0.9295076112653236 Q 2.5545926252269084 0.9288312635377975 2.5303790538899364 0.936108142203089 Q 2.5061654825529645 0.9433850208683804 2.4617877078203025 0.961037587530968 Q 2.3962564202472727 0.987938337502315 2.348719142609547 0.9997157410698989 Q 2.3011818649718205 1.011493144637483 2.250792911506264 1.0018260163852075 Q 2.200403958040707 0.9921588881329322 2.159512500994052 0.9455553610067418 Q 2.117961504317612 0.8982001640881934 2.108662121287648 0.839841176132078 Q 2.0993627382576845 0.7814821881759626 2.1249604416392223 0.7204411562253901 Q 2.1505581450207596 0.6594001242748175 2.2114433982017503 0.605977414262252 Z" fill="#ffffff" fill-rule="nonzero"></path></g><g clip-path="url(&quot;#SvgjsClipPath1022&quot;)"><path d=" M 2.3841168423750485 -2.7959298186565826 L -2.3842012657759892 -2.7959298186565826 C -2.403969550099904 -2.7959282881520346 -2.4214373482613567 -2.8087938946333386 -2.4272994119527715 -2.827673017407751 C -2.4332321240204595 -2.8465444559300623 -2.426181674293754 -2.8670797463961866 -2.409908191360375 -2.8783270579681286 L -1.2701922787519055 -3.669458748120275 C -1.262617235785022 -3.674720869441707 -1.2536242293382587 -3.677561540872516 -1.2444009297665857 -3.677605606310403 L 1.3118130154123495 -3.677605606310403 C 1.3214924542599058 -3.677597040717306 1.3309150582109304 -3.6744906877664176 1.3387018686098147 -3.668741149212338 L 2.4111323306739143 -2.877567247359724 C 2.4269079081643126 -2.8659550337114736 2.4334309103839065 -2.845517428845894 2.4272994119527684 -2.8269132067993468 C 2.421136696679306 -2.808321516662823 2.4037029681308217 -2.7958128590336995 2.3841168423750485 -2.7959298186565826 Z M -2.2397528267779783 -2.886389492757322 L 2.246633333954093 -2.886389492757322 L 1.2968700734470349 -3.5871037205091967 L -1.2303444335110767 -3.5871037205091967 Z" fill="#67a97b" transform="matrix(1,0,0,1,0,0)" fill-rule="nonzero"></path><path d=" M 0.0022794318252170598 -0.1874999999999991 C -0.010414654355005215 -0.18749671239676102 -0.022521886623280363 -0.19284535044945494 -0.031067811543697754 -0.2022318834629746 L -2.408852898848701 -2.810914972322361 C -2.41696759204311 -2.819761277491489 -2.4212150733651074 -2.8314809598229544 -2.420652366993148 -2.8434721533550325 C -2.4200896606211857 -2.8554633468871065 -2.4147633313456462 -2.866733762495226 -2.4058558681155464 -2.8747812751288984 C -2.3970048764835092 -2.8828798413624765 -2.3852932663254367 -2.8871204546017406 -2.3733091347987703 -2.8865660004002445 C -2.3613250032721003 -2.8860115461987443 -2.350054975505791 -2.8807076714560385 -2.3419895653090057 -2.871826456096211 L 0.0022794318252170598 -0.3002052402468367 L 2.3419051419080645 -2.871615397593879 C 2.349957376010545 -2.880499915237708 2.361217223979235 -2.885810619573922 2.3731945693555003 -2.8863730478290286 C 2.385171914731769 -2.8869354760841315 2.3968798747807067 -2.882703286542391 2.4057292330141387 -2.874612428327037 C 2.42418625907594 -2.8577773508519146 2.4255089121577846 -2.829170254196135 2.408684052046829 -2.8107039138200256 L 0.0356688868945958 -0.2023163068639109 C 0.027121431488739134 -0.1928723613381833 0.014974840964390168 -0.18748921326488954 0.002237220124750028 -0.1874999999999991 Z" fill="#67a97b" transform="matrix(1,0,0,1,0,0)" fill-rule="nonzero"></path><path d=" M 1.2352832024657077 -2.7959298186565826 L 1.2329193472395565 -2.7959298186565826 C 1.2191739236130559 -2.7966779911854758 1.2065147372144729 -2.8036366605186895 1.1985168113589642 -2.814840660465788 L 0.6685067002955583 -3.558568610993518 L 0.03680860280719722 -2.811885841433101 C 0.02835519424781241 -2.8018549892514537 0.01594544514438523 -2.7960123868785374 0.002828183931279149 -2.7958876069561156 L 0.0021950084242758905 -2.7958876069561156 C -0.010705579956272526 -2.7959419559928596 -0.022977983245305644 -2.8014645374729263 -0.03157435194930658 -2.8110838191242293 L -0.6982659491247896 -3.561776700229008 L -1.2852618558186182 -2.813152192447111 C -1.2935251742511469 -2.802673374436592 -1.3059890597895378 -2.796371930446922 -1.3193266980954705 -2.7959298186565826 C -1.33271332727335 -2.7954492665414845 -1.3456180883122357 -2.8009577736516076 -1.3545312562849312 -2.8109571840228282 L -1.7619585891922258 -3.2665480671629474 C -1.769976030566371 -3.27548712755205 -1.7741078747328451 -3.287248535151223 -1.7734426815377407 -3.2992378505962847 C -1.7727774883426397 -3.3112271660413466 -1.7673699123465212 -3.322459305943258 -1.7584128063529958 -3.330456581669955 C -1.7397933041327747 -3.3471017394840423 -1.7112090149625898 -3.34551477300004 -1.6945465035464586 -3.326910798830725 L -1.3230835394370328 -2.911505454535175 L -0.7360876327432075 -3.6602565974184733 C -0.7277648462161992 -3.670804034988377 -0.7151993596016935 -3.6771254175533628 -0.7017695202635561 -3.6775211829094685 C -0.6883658015426917 -3.677906125651581 -0.6754781428721433 -3.6723431075204127 -0.6665649620740919 -3.6623249707413548 L 0.0013929861154009515 -2.9101546801202307 L 0.6371434068485939 -3.66152294843248 C 0.646037000712866 -3.672320146337055 0.6595171108005986 -3.6782695561318715 0.6734876809506702 -3.6775633946099324 C 0.6874522878717864 -3.677027364013799 0.7003716608955153 -3.6700215687388544 0.7084389689373212 -3.6586103411002564 L 1.239377737411 -2.9134894044571222 L 1.6501397946551855 -3.372710493837402 C 1.6581179829618788 -3.381676941025803 1.669336848722521 -3.3870992780159277 1.681319534590524 -3.3877803824340713 C 1.69330222045852 -3.388461486852212 1.7050632602166846 -3.384345344095147 1.7140060974617297 -3.3763407000775634 C 1.7229605635022773 -3.368350812296193 1.72836713513668 -3.3571257743986207 1.7290323847458318 -3.345143361795655 C 1.729697634354987 -3.333160949192686 1.7255668621617808 -3.321406409060142 1.7175518803009568 -3.312474397271026 L 1.269052562839287 -2.8109993957232953 C 1.2604527105760086 -2.801400581260418 1.2481709718140204 -2.795919855337878 1.2352832024657077 -2.7959298186565826 Z" fill="#67a97b" transform="matrix(1,0,0,1,0,0)" fill-rule="nonzero"></path><path d=" M 0.002363855226147571 -0.1874999999999991 C -0.014690004277504443 -0.18750825252986347 -0.030290841217225584 -0.19710374637982042 -0.03799053042028966 -0.2123204798745859 L -1.3612007049587171 -2.8206658751302354 C -1.366638775726821 -2.8313716968761007 -1.367594326131877 -2.843801137678428 -1.3638565706410233 -2.8552123784884262 C -1.3601188151501695 -2.866623619298428 -1.351994862947897 -2.876079066186345 -1.3412767823383043 -2.881492935503151 C -1.3190112343897806 -2.892777011912743 -1.2918134655273534 -2.883899962353476 -1.280491933665849 -2.861653436283669 L 0.04267602917211466 -0.25297034742428304 C 0.053982505315884666 -0.2306832148777498 0.04508122450414698 -0.2034502092520265 0.022794318252169266 -0.19214328705136552 C 0.016452547140397566 -0.18898658652591704 0.009447051799618578 -0.1873944284939224 0.0023638552261444623 -0.18749999999999734 Z" fill="#67a97b" transform="matrix(1,0,0,1,0,0)" fill-rule="nonzero"></path><path d=" M 0.002363855226147571 -0.1874999999999991 C -0.0009693958790615298 -0.18752451765281242 -0.004292087888248641 -0.18787799552613027 -0.00755589438359161 -0.18855529251167313 C -0.028212512764941078 -0.19318474744928205 -0.042882466030741195 -0.2115397368225156 -0.04284487597398989 -0.23270873120013658 L -0.04529315460107197 -2.8413918200595196 C -0.04526985709150777 -2.8663667394550068 -0.02501714196233573 -2.8866005621260356 -0.00004221170047369327 -2.886600551259657 L -0.000042211700470584645 -2.886600551259657 C 0.024883298661923625 -2.886554091659902 0.04507784819944538 -2.866359542122384 0.04512430779920029 -2.84143403175999 L 0.04744595132488438 -0.4338896956257643 L 1.1944222764136754 -2.8603870852696627 C 1.1995362164140024 -2.8712485431446724 1.2087566395825613 -2.879632695980222 1.2200539504771526 -2.8836940277874614 C 1.231351261371747 -2.8877553595946943 1.2437994307027855 -2.8871609670620813 1.254658372980055 -2.8820416876092234 C 1.2655390353978229 -2.8769376761742 1.2739368365271337 -2.867707666759816 1.277993080420445 -2.8563945490261258 C 1.282049324313756 -2.8450814312924426 1.2814294890740836 -2.832618207717747 1.2762707636191486 -2.8217633793423733 L 0.04330920467912147 -0.21308029048298716 C 0.03569774893286981 -0.19740508612837626 0.01978927230562144 -0.18746638835919072 0.002363855226147571 -0.1874999999999991 Z" fill="#67a97b" transform="matrix(1,0,0,1,0,0)" fill-rule="nonzero"></path></g></g><defs><clipPath id="SvgjsClipPath1022"><path d=" M -2.42940999697612 -3.67764781801087 h 4.85881999395224 v 3.49014781801087 h -4.85881999395224 Z"></path></clipPath></defs></svg>